# xmcd CD database file
#
# Track frame offsets:
#	150
#	13020
#	23013
#	32939
#	43288
#	54012
#	64883
#	75228
#	85021
#	94039
#	105705
#	118277
#
# Disc length: 1717 seconds
#
# Revision: 1
# Processed by: cddbd v1.5.2PL0 Copyright (c) Steve Scherf et al.
# Submitted via: jetAudio 7
#
DISCID=8e06b30c
DTITLE=Chet Atkins - Chet Atkins' Workshop
DYEAR=1900
DGENRE=Country
TTITLE0=Lambeth Walk
TTITLE1=Theme From ''A Summer Place''
TTITLE2=Whispering
TTITLE3=In A Little Spanish Town ('Twas On A Night Like This)
TTITLE4=Sleep
TTITLE5=Marie
TTITLE6=Hot Mocking Bird
TTITLE7=Lullaby Of Birdland
TTITLE8=Tammy
TTITLE9=Goofus
TTITLE10=Bonita
TTITLE11=Whatever Will Be, Will Be (Que Será, Será)
EXTD=Hallmark - Pickwick Group Ltd. 711272
EXTT0=
EXTT1=
EXTT2=
EXTT3=
EXTT4=
EXTT5=
EXTT6=
EXTT7=
EXTT8=
EXTT9=
EXTT10=
EXTT11=
PLAYORDER=
